<svg width="131" height="45" viewBox="0 0 131 45" fill="none" xmlns="http://www.w3.org/2000/svg">
<g clip-path="url(#clip0_1_87865)">
<path d="M22.8601 0.415094L51.0641 28.505V43.5849H37.9022V33.926L17.4173 13.5237H13.1619V43.5849H0V0.415094H22.8601ZM37.9022 15.3964V0.415094H51.0641V15.3964H37.9022Z" fill="white"/>
</g>
<path d="M61.7727 44.3707C60.5199 44.3707 59.4034 44.1534 58.4233 43.7188C57.4432 43.2756 56.6676 42.6236 56.0966 41.7628C55.5341 40.8935 55.2528 39.8111 55.2528 38.5156C55.2528 37.4247 55.4531 36.5085 55.8537 35.767C56.2543 35.0256 56.7997 34.429 57.4901 33.9773C58.1804 33.5256 58.9645 33.1847 59.8423 32.9545C60.7287 32.7244 61.6577 32.5625 62.6293 32.4688C63.7713 32.3494 64.6918 32.2386 65.3906 32.1364C66.0895 32.0256 66.5966 31.8636 66.9119 31.6506C67.2273 31.4375 67.3849 31.1222 67.3849 30.7045V30.6278C67.3849 29.8182 67.1293 29.1918 66.6179 28.7486C66.1151 28.3054 65.3991 28.0838 64.4702 28.0838C63.4901 28.0838 62.7102 28.3011 62.1307 28.7358C61.5511 29.1619 61.1676 29.6989 60.9801 30.3466L55.9432 29.9375C56.1989 28.7443 56.7017 27.7131 57.4517 26.8438C58.2017 25.9659 59.169 25.2926 60.3537 24.8239C61.5469 24.3466 62.9276 24.108 64.4957 24.108C65.5866 24.108 66.6307 24.2358 67.6278 24.4915C68.6335 24.7472 69.5241 25.1435 70.2997 25.6804C71.0838 26.2173 71.7017 26.9077 72.1534 27.7514C72.6051 28.5866 72.831 29.5881 72.831 30.7557V44H67.6662V41.277H67.5128C67.1974 41.8906 66.7756 42.4318 66.2472 42.9006C65.7188 43.3608 65.0838 43.723 64.3423 43.9872C63.6009 44.2429 62.7443 44.3707 61.7727 44.3707ZM63.3324 40.6122C64.1335 40.6122 64.8409 40.4545 65.4545 40.1392C66.0682 39.8153 66.5497 39.3807 66.8991 38.8352C67.2486 38.2898 67.4233 37.6719 67.4233 36.9815V34.8977C67.2528 35.0085 67.0185 35.1108 66.7202 35.2045C66.4304 35.2898 66.1023 35.3707 65.7358 35.4474C65.3693 35.5156 65.0028 35.5795 64.6364 35.6392C64.2699 35.6903 63.9375 35.7372 63.6392 35.7798C63 35.8736 62.4418 36.0227 61.9645 36.2273C61.4872 36.4318 61.1165 36.7088 60.8523 37.0582C60.5881 37.3991 60.456 37.8253 60.456 38.3366C60.456 39.0781 60.7244 39.6449 61.2614 40.0369C61.8068 40.4205 62.4972 40.6122 63.3324 40.6122ZM77.7761 44V24.3636H83.2221V44H77.7761ZM80.5119 21.8324C79.7022 21.8324 79.0076 21.5639 78.4281 21.027C77.8571 20.4815 77.5716 19.8295 77.5716 19.071C77.5716 18.321 77.8571 17.6776 78.4281 17.1406C79.0076 16.5952 79.7022 16.3224 80.5119 16.3224C81.3216 16.3224 82.0119 16.5952 82.5829 17.1406C83.1625 17.6776 83.4522 18.321 83.4522 19.071C83.4522 19.8295 83.1625 20.4815 82.5829 21.027C82.0119 21.5639 81.3216 21.8324 80.5119 21.8324ZM95.5405 44.3196C94.049 44.3196 92.6982 43.9361 91.4879 43.169C90.2862 42.3935 89.3317 41.2557 88.6243 39.7557C87.9254 38.2472 87.576 36.3977 87.576 34.2074C87.576 31.9574 87.9382 30.0866 88.6627 28.5952C89.3871 27.0952 90.3502 25.9744 91.5519 25.233C92.7621 24.483 94.0874 24.108 95.5277 24.108C96.6271 24.108 97.5433 24.2955 98.2763 24.6705C99.0178 25.0369 99.6144 25.4972 100.066 26.0511C100.526 26.5966 100.876 27.1335 101.114 27.6619H101.281V17.8182H106.714V44H101.344V40.8551H101.114C100.859 41.4006 100.496 41.9418 100.028 42.4787C99.5675 43.0071 98.9666 43.446 98.2252 43.7955C97.4922 44.1449 96.5973 44.3196 95.5405 44.3196ZM97.2663 39.9858C98.1442 39.9858 98.8857 39.7472 99.4908 39.2699C100.104 38.7841 100.573 38.1065 100.897 37.2372C101.229 36.3679 101.396 35.3494 101.396 34.1818C101.396 33.0142 101.234 32 100.91 31.1392C100.586 30.2784 100.117 29.6136 99.5036 29.1449C98.8899 28.6761 98.1442 28.4418 97.2663 28.4418C96.3715 28.4418 95.6172 28.6847 95.0036 29.1705C94.3899 29.6562 93.9254 30.3295 93.6101 31.1903C93.2948 32.0511 93.1371 33.0483 93.1371 34.1818C93.1371 35.3239 93.2948 36.3338 93.6101 37.2116C93.934 38.081 94.3985 38.7628 95.0036 39.2571C95.6172 39.7429 96.3715 39.9858 97.2663 39.9858ZM117.511 44.3707C116.258 44.3707 115.142 44.1534 114.161 43.7188C113.181 43.2756 112.406 42.6236 111.835 41.7628C111.272 40.8935 110.991 39.8111 110.991 38.5156C110.991 37.4247 111.191 36.5085 111.592 35.767C111.992 35.0256 112.538 34.429 113.228 33.9773C113.919 33.5256 114.703 33.1847 115.58 32.9545C116.467 32.7244 117.396 32.5625 118.367 32.4688C119.509 32.3494 120.43 32.2386 121.129 32.1364C121.828 32.0256 122.335 31.8636 122.65 31.6506C122.965 31.4375 123.123 31.1222 123.123 30.7045V30.6278C123.123 29.8182 122.867 29.1918 122.356 28.7486C121.853 28.3054 121.137 28.0838 120.208 28.0838C119.228 28.0838 118.448 28.3011 117.869 28.7358C117.289 29.1619 116.906 29.6989 116.718 30.3466L111.681 29.9375C111.937 28.7443 112.44 27.7131 113.19 26.8438C113.94 25.9659 114.907 25.2926 116.092 24.8239C117.285 24.3466 118.666 24.108 120.234 24.108C121.325 24.108 122.369 24.2358 123.366 24.4915C124.372 24.7472 125.262 25.1435 126.038 25.6804C126.822 26.2173 127.44 26.9077 127.892 27.7514C128.343 28.5866 128.569 29.5881 128.569 30.7557V44H123.404V41.277H123.251C122.936 41.8906 122.514 42.4318 121.985 42.9006C121.457 43.3608 120.822 43.723 120.08 43.9872C119.339 44.2429 118.482 44.3707 117.511 44.3707ZM119.071 40.6122C119.872 40.6122 120.579 40.4545 121.193 40.1392C121.806 39.8153 122.288 39.3807 122.637 38.8352C122.987 38.2898 123.161 37.6719 123.161 36.9815V34.8977C122.991 35.0085 122.757 35.1108 122.458 35.2045C122.169 35.2898 121.84 35.3707 121.474 35.4474C121.107 35.5156 120.741 35.5795 120.374 35.6392C120.008 35.6903 119.676 35.7372 119.377 35.7798C118.738 35.8736 118.18 36.0227 117.703 36.2273C117.225 36.4318 116.855 36.7088 116.59 37.0582C116.326 37.3991 116.194 37.8253 116.194 38.3366C116.194 39.0781 116.463 39.6449 116.999 40.0369C117.545 40.4205 118.235 40.6122 119.071 40.6122Z" fill="white"/>
<defs>
<clipPath id="clip0_1_87865">
<rect width="52" height="44" fill="white"/>
</clipPath>
</defs>
</svg>
